<svg width="400" height="140" viewBox="0 0 400 140" fill="none" xmlns="http://www.w3.org/2000/svg">
<path d="M0.200195 24.0001H18.6002L18.0002 41.8001H18.1002C20.9002 31.5001 23.9002 23.1001 38.5002 23.1001C50.0002 23.1001 57.4002 29.0001 58.7002 38.7001H58.8002C61.2002 29.0001 67.8002 23.1001 79.3002 23.1001C92.3002 23.1001 99.7002 31.3001 99.7002 45.3001V83.8001H81.3002V49.6001C81.3002 42.6001 77.7001 38.3001 71.4001 38.3001C65.1001 38.3001 59.1002 43.9001 59.1002 54.9001V83.8001H40.7002V49.6001C40.7002 42.6001 37.1002 38.3001 30.8002 38.3001C24.5002 38.3001 18.6002 44.0001 18.6002 55.2001V83.8001H0.200195V24.0001Z" fill="white"/>
<path d="M107.2 54.0001C107.2 34.6001 120 23.1001 139.7 23.1001C159.4 23.1001 172.3 34.6001 172.3 54.0001C172.3 73.4001 159.4 84.8001 139.7 84.8001C120 84.8001 107.2 73.4001 107.2 54.0001ZM153.9 54.0001C153.9 43.4001 148.7 37.1001 139.7 37.1001C130.7 37.1001 125.6 43.4001 125.6 54.0001C125.6 64.6001 130.8 70.7001 139.7 70.7001C148.6 70.7001 153.9 64.6001 153.9 54.0001Z" fill="white"/>
<path d="M198.5 71.4H198.4C198.5 74.9 198.7 80.9 199 83.8H180.6V0H199V25C199 27.8 198.7 36.2 198.6 39.1H198.9C201.2 31.2 208.8 23.1 219.4 23.1C236.5 23.1 246.5 34.1 246.5 52.7C246.5 72.9 236.3 84.8 219.3 84.8C208.4 84.8 200.7 79 198.5 71.4ZM228.1 53.3C228.1 43.2 223 37.1 214.5 37.1C206 37.1 199 43.3 199 53.6V56.3C199 65.4 204.8 70.7 214.6 70.7C224.4 70.7 228.1 64.3 228.1 53.3Z" fill="white"/>
<path d="M255.1 24H273.5V83.8H255.1V24Z" fill="white"/>
<path d="M283.4 0H301.8V83.8H283.4V0Z" fill="white"/>
<path d="M311.4 0H329.8V83.8H311.4V0Z" fill="white"/>
<path d="M338.2 63.7001H354.6C354.6 69.3001 357.4 72.9001 367.9 72.9001C378.4 72.9001 380.8 70.1001 380.8 65.8001C380.8 63.6001 379.7 61.9001 376.6 61.2001C373.5 60.5001 368.6 60.0001 362.7 59.5001C354.1 58.8001 347.5 57.4001 343.8 54.9001C342.01 53.5293 340.57 51.7549 339.597 49.7216C338.624 47.6883 338.145 45.4537 338.2 43.2001C338.2 30.2001 351.5 23.1001 368 23.1001C387.6 23.1001 396.6 30.6001 396.6 44.5001H380.4C380.2 38.2001 377.3 34.9001 368.3 34.9001C359.3 34.9001 356.4 37.7001 356.4 41.8001C356.4 45.9001 357.4 46.3001 360.8 47.1001C364.2 47.9001 369.1 48.4001 375.5 49.0001C381.9 49.6001 388.1 50.4001 392.6 53.0001C394.64 54.2131 396.325 55.9426 397.484 58.0143C398.642 60.086 399.234 62.4266 399.2 64.8001C399.2 77.4001 388.5 84.8001 368 84.8001C347.5 84.8001 338.2 75.8001 338.2 63.7001Z" fill="white"/>
<path d="M261.7 126.5C261.7 127.9 261.8 129.7 261.9 130.7H257.4V103.2H261.9V112.1C261.9 112.9 261.8 114.5 261.8 115.5C262.6 112.6 265.3 110.8 269.2 110.8C274.8 110.8 278.2 114.5 278.2 120.6C278.2 126.7 274.8 131 269.3 131C263.8 131 262.5 129.3 261.7 126.5ZM273.8 120.7C273.8 116.8 271.7 114.5 268.2 114.5C264.7 114.5 261.9 116.9 261.9 120.9V121.9C261.9 125.3 264.3 127.4 268.1 127.4C271.9 127.4 273.8 124.8 273.8 120.7Z" fill="white"/>
<path d="M282 138.5V135C282.783 135.224 283.588 135.358 284.4 135.4C286.5 135.4 287.4 134.3 288.9 130.7H287.8L279.4 111.1H284.5L290.7 126.2H290.8L296.3 111.1H300.6L293.2 131.1C291 137 289.1 139 285.2 139C284.113 139.018 283.031 138.849 282 138.5Z" fill="white"/>
<path d="M319.4 108.5H311.4V104.6H332.3V108.5H324.2V130.7H319.4V108.5Z" fill="white"/>
<path d="M331.8 120.9C331.8 114.7 335.8 110.8 342 110.8C348.2 110.8 352.3 114.7 352.3 120.9C352.3 127.1 348.3 131 342 131C335.7 131 331.8 127.2 331.8 120.9ZM347.8 120.9C347.8 116.9 345.6 114.5 342 114.5C338.4 114.5 336.2 116.9 336.2 120.9C336.2 124.9 338.4 127.4 342 127.4C345.6 127.4 347.8 124.9 347.8 120.9Z" fill="white"/>
<path d="M356.1 111.1H360.5V116.7C361.4 113.2 363.4 110.8 367.5 110.8C371.6 110.8 374 113.6 374 118.5C374 119.7 373.9 121.3 373.9 122.1H369.7C369.824 121.205 369.891 120.303 369.9 119.4C369.9 116.2 368.6 114.6 366 114.6C362.6 114.6 360.5 117.5 360.5 122.1V130.7H356.1V111.1Z" fill="white"/>
<path d="M377.2 120.9C377.2 114.7 381.2 110.8 387.4 110.8C393.6 110.8 397.6 114.7 397.6 120.9C397.6 127.1 393.6 131 387.4 131C381.2 131 377.2 127.2 377.2 120.9ZM393.2 120.9C393.2 116.9 391 114.5 387.4 114.5C383.8 114.5 381.6 116.9 381.6 120.9C381.6 124.9 383.8 127.4 387.4 127.4C391 127.4 393.2 124.9 393.2 120.9Z" fill="white"/>
</svg>
